# xmcd
#
# Track frame offsets:
#	150
#	13430
#	30477
#	45835
#	64582
#	79154
#	96207
#	111475
#	125857
#	140932
#	156647
#	173807
#
# Disc length: 2500 seconds
#
# Revision: 3
# Processed by: cddbd v1.5.2PL0 Copyright (c) Steve Scherf et al.
# Submitted via: EZCDAudioConverter 5.0.5.1
#
DISCID=ad09c20c
DTITLE=Cole Swindell - You Should Be Here
DYEAR=2016
DGENRE=Country
TTITLE0=Flatliner
TTITLE1=Middle Of A Memory
TTITLE2=Broke Down
TTITLE3=Home Game
TTITLE4=Up
TTITLE5=Party Wasn't Over
TTITLE6=Stay Downtown
TTITLE7=You Should Be Here
TTITLE8=Stars
TTITLE9=Making My Way To You
TTITLE10=No Can Left Behind
TTITLE11=Remember Boys
EXTD=
EXTT0=
EXTT1=
EXTT2=
EXTT3=
EXTT4=
EXTT5=
EXTT6=
EXTT7=
EXTT8=
EXTT9=
EXTT10=
EXTT11=
PLAYORDER=
